<mxfile host="app.diagrams.net" modified="2022-12-03T11:53:15.876Z" agent="5.0 (Windows NT 10.0; WOW64) AppleWebKit/537.36 (KHTML, like Gecko) Chrome/107.0.0.0 Safari/537.36" etag="jpJwjvQZf67erVOSQ-0_" version="20.6.0" type="github">
  <diagram id="y7Y_IFUutbavXdTeKMza" name="Page-1">
    <mxGraphModel dx="1422" dy="762" grid="1" gridSize="10" guides="1" tooltips="1" connect="1" arrows="1" fold="1" page="1" pageScale="1" pageWidth="850" pageHeight="1100" math="0" shadow="0">
      <root>
        <mxCell id="0" />
        <mxCell id="1" parent="0" />
        <mxCell id="n6TStH-pxN3zzjgSOC7f-1" value="重新实验" style="whiteSpace=wrap;html=1;aspect=fixed;" parent="1" vertex="1">
          <mxGeometry x="370" y="140" width="80" height="80" as="geometry" />
        </mxCell>
        <mxCell id="qIR8o_oi-kB58LD8v-gs-1" value="2" style="whiteSpace=wrap;html=1;aspect=fixed;" vertex="1" parent="1">
          <mxGeometry x="380" y="350" width="80" height="80" as="geometry" />
        </mxCell>
        <mxCell id="qIR8o_oi-kB58LD8v-gs-2" value="1" style="ellipse;whiteSpace=wrap;html=1;aspect=fixed;" vertex="1" parent="1">
          <mxGeometry x="230" y="340" width="80" height="80" as="geometry" />
        </mxCell>
        <mxCell id="qIR8o_oi-kB58LD8v-gs-3" value="3" style="shape=process;whiteSpace=wrap;html=1;backgroundOutline=1;" vertex="1" parent="1">
          <mxGeometry x="550" y="350" width="120" height="60" as="geometry" />
        </mxCell>
      </root>
    </mxGraphModel>
  </diagram>
</mxfile>
